<svg width="75" height="102" viewBox="0 0 75 102" fill="none" xmlns="http://www.w3.org/2000/svg">
<path d="M50.8044 10.2142C49.2683 6.11623 48.4838 4.03561 47.6676 4.05671C46.5021 4.08572 46.3148 6.96271 43.8004 10.5754C42.4661 12.4939 39.7737 16.4323 36.931 16.191C34.1067 15.9523 32.22 11.6869 30.6364 8.11113C28.3712 2.99267 28.5466 0.122266 27.4588 0.00360016C25.8384 -0.173081 25.0262 6.1716 20.3112 14.9964C16.3596 22.3906 14.5044 22.4737 14.2025 25.973C13.6026 32.8992 20.2109 40.2077 27.4509 43.1902C35.6863 46.5827 43.2875 43.7848 45.2482 42.9832C52.5514 39.9967 60.0023 32.646 58.8803 26.6903C58.4939 24.6426 57.3284 23.9953 55.787 21.7459C55.0843 20.7201 54.3433 19.2328 53.506 17.4357C52.3062 14.8593 52.2178 13.9864 50.8031 10.2142H50.8044ZM31.0597 26.1299C30.9792 29.0808 29.0502 32.4034 27.2676 32.3124C25.4889 32.2201 24.1454 28.7459 24.0597 26.0798C23.9648 23.1409 25.3413 19.4635 27.1186 19.3409C28.9408 19.2156 31.1493 22.8257 31.0597 26.1299ZM38.1401 38.7956C37.0325 40.1708 36.5895 40.3356 36.2309 40.3356C35.9672 40.3356 35.4569 40.2472 34.319 38.7956C32.9478 37.0433 31.9299 35.7406 32.4098 34.8255C32.8963 33.9026 34.6196 33.9223 36.1663 33.9408C37.6601 33.9566 39.7407 33.9817 40.1983 35.0312C40.5384 35.8131 39.7394 36.8059 38.1414 38.7956H38.1401ZM48.7844 26.7681C48.5576 29.2772 46.9846 32.3362 45.2574 32.3124C43.4919 32.29 42.0534 29.0491 41.8451 26.5479C41.5722 23.2938 43.219 19.4161 45.028 19.3422C46.9003 19.2631 49.1035 23.2424 48.7844 26.7694V26.7681Z" fill="#EFEFEF"/>
<path d="M28.0454 55.4853H19.7651C17.9495 54.7733 16.0074 54.4133 13.9953 54.4133C6.28203 54.4133 0.00591153 59.8416 0.00591153 66.5173C0.00591153 69.6474 1.37321 72.6009 3.85992 74.8608C3.34043 75.4568 2.62052 77.1985 2.53086 78.7056C2.49263 79.3372 2.54537 80.5766 3.3101 81.7751C3.60941 82.2471 4.47171 83.3969 5.988 83.8755C6.62616 84.0772 7.21554 84.0983 7.47792 84.0996C8.05148 84.1023 8.51427 83.9955 8.95334 83.8979C9.45569 83.7872 9.81696 83.6659 9.90399 83.6382C10.8823 83.3204 12.7454 83.1147 14.0006 83.1028C14.8669 83.0949 18.7828 83.0527 22.2439 85.5052C23.8011 86.6088 24.4023 87.6069 24.6054 87.9708C24.7953 88.3123 25.4268 89.4541 25.4268 90.8307C25.4268 92.8111 24.2969 94.7018 22.2439 96.1574C20.0592 97.7067 17.1308 98.5598 14.0006 98.5598C10.8705 98.5598 7.94204 97.708 5.75594 96.1574C5.26678 95.8107 4.82508 95.4112 4.82508 95.4112C4.30031 94.9246 3.3668 94.0399 2.88027 92.5961C2.63503 91.8683 2.59811 91.2842 2.5902 91.1168C2.54669 90.2136 2.75237 89.5306 2.89741 89.0638C3.1677 88.2002 3.53689 87.6029 3.7584 87.2443C3.96409 86.912 4.19219 86.5916 4.43611 86.2923C4.60884 86.0761 4.6062 85.7689 4.4282 85.5579L3.88102 84.9066C3.77026 84.776 3.60941 84.7022 3.44064 84.7022C3.32593 84.7022 3.21385 84.7365 3.1176 84.8011C2.8539 84.9804 2.58888 85.1927 2.32913 85.43C1.00271 86.6365 0.454206 87.9352 0.226103 88.8133C0.0454669 89.5108 0.0217337 90.1147 0.00723004 90.4746C-0.00463657 90.77 -0.0191402 91.507 0.117985 92.2942C0.435747 94.1296 1.43254 95.4296 1.92303 96.0533C2.19464 96.4 2.96334 97.3151 4.27526 98.2446C6.89118 100.098 10.3444 101.119 14.0006 101.119C17.6568 101.119 21.1113 100.098 23.7246 98.2446C26.4737 96.2972 27.9861 93.6628 27.9861 90.8307C27.9861 87.9985 26.4737 85.3654 23.7246 83.418C21.11 81.5641 17.6555 80.5423 14.0006 80.5423C12.3024 80.5423 10.5698 80.715 8.9507 81.2266C8.75424 81.2886 7.88402 81.5786 6.99667 81.2807C6.83581 81.2266 6.70527 81.162 6.61957 81.1198C6.41256 81.0156 5.70848 80.6201 5.40258 79.8619C5.06373 79.0128 5.31161 77.3027 6.03415 76.4734C8.37847 77.8802 11.1262 78.6239 13.9953 78.6239C21.7113 78.6239 27.9874 73.1929 27.9874 66.5199C27.9874 63.3726 26.624 60.4337 24.1334 58.1737H28.0454C28.3632 58.1737 28.6216 57.9153 28.6216 57.5975V56.0628C28.6216 55.745 28.3632 55.4866 28.0454 55.4866V55.4853ZM13.9953 76.0027C7.7258 76.0027 2.62448 71.7465 2.62448 66.5173C2.62448 61.2881 7.7258 57.0319 13.9953 57.0319C20.2649 57.0319 25.3675 61.2867 25.3675 66.5173C25.3675 71.7478 20.2662 76.0027 13.9953 76.0027Z" fill="#EFEFEF"/>
<path d="M56.8564 55.6712C53.4692 54.8353 50.4142 54.4134 47.7758 54.4134C46.7645 54.4002 45.4262 54.4477 43.873 54.6863C43.3746 54.7628 41.8676 55.0133 40.4436 55.4761C37.7182 56.3608 35.4438 57.7954 33.6875 59.7389C32.7131 60.8148 29.7544 64.0886 29.9139 68.8761C30.1077 74.6842 34.737 78.0688 35.6125 78.6793C39.0064 81.046 42.5677 81.1001 43.9271 81.1027C44.8935 81.104 47.0005 81.0157 49.4688 80.0809C51.407 79.3478 53.2147 78.2139 54.731 76.7846L54.698 79.51C54.698 79.5521 54.7006 79.6128 54.7204 79.68C54.7745 79.8607 54.9222 80.0083 55.1002 80.065C55.1674 80.0861 55.228 80.0914 55.2729 80.0914H56.805C57.1227 80.0914 57.3785 79.833 57.3785 79.5152V56.3358C57.3785 56.0193 57.1649 55.7464 56.8564 55.6712ZM54.7033 57.7743C54.7006 62.9415 54.6967 68.1088 54.694 73.276C53.7645 74.377 51.7722 76.422 48.5788 77.5467C47.6677 77.8684 41.9783 79.8712 37.1552 76.4813C36.2401 75.8379 32.7421 73.1692 32.5971 68.7852C32.4732 65.0736 34.8016 62.5077 35.6785 61.5413C39.543 57.2851 45.2008 57.0451 47.7112 56.9383C50.6924 56.8118 53.1316 57.326 54.7046 57.7743H54.7033Z" fill="#EFEFEF"/>
<path d="M74.9965 78.885C74.9754 79.0419 74.8897 79.1843 74.7618 79.2766C72.4623 80.9274 69.5695 81.1146 69.5695 81.1146C68.7481 81.1028 66.115 80.9498 63.7773 78.9984C61.6176 77.196 60.8753 74.9295 60.423 72.9887C59.9009 70.7551 59.9009 68.1273 59.9009 66.5583V51.075C59.9009 50.7572 60.1593 50.4988 60.4771 50.4988H62.0118C62.3283 50.4988 62.5854 50.7572 62.5854 51.075V55.4854H70.6744C70.9922 55.4854 71.2506 55.7438 71.2506 56.0616V57.5963C71.2506 57.9141 70.9922 58.1725 70.6744 58.1725H62.5854V66.5596C62.5854 68.0139 62.5854 70.4452 63.0376 72.3782C63.358 73.7534 64.0542 75.6679 65.5481 76.9824C66.6569 77.9568 68.2154 78.5145 69.8214 78.5145C71.1386 78.5145 72.3872 78.1308 73.3392 77.436C73.438 77.3635 73.5541 77.3239 73.6767 77.3239C73.8507 77.3239 74.0129 77.4017 74.1224 77.5349L74.8686 78.4447C74.9702 78.5686 75.0163 78.7295 74.9952 78.8877L74.9965 78.885Z" fill="#EFEFEF"/>
</svg>
