<svg width="568" height="568" viewBox="0 0 568 568" fill="none" xmlns="http://www.w3.org/2000/svg">
<path d="M541.252 363.301C542.093 365.842 542.914 368.392 543.718 370.95L542.767 371.25C542.967 371.887 543.166 372.526 543.364 373.164L544.317 372.868C545.107 375.416 545.878 377.972 546.63 380.536L545.673 380.817C545.861 381.457 546.047 382.098 546.232 382.738L547.191 382.461C547.934 385.029 548.657 387.605 549.362 390.189L548.4 390.452C548.576 391.097 548.75 391.743 548.924 392.389L549.888 392.129C550.582 394.712 551.256 397.302 551.912 399.9L550.945 400.146C551.108 400.791 551.269 401.437 551.43 402.083L552.397 401.842C553.041 404.432 553.666 407.03 554.271 409.636L553.299 409.861C553.45 410.511 553.599 411.162 553.748 411.813L554.721 411.591C555.316 414.2 555.892 416.816 556.449 419.439L555.473 419.647C555.612 420.302 555.749 420.957 555.886 421.612L556.862 421.408C557.406 424.02 557.932 426.639 558.438 429.265L557.457 429.454C557.583 430.108 557.708 430.763 557.831 431.418L558.811 431.232C559.305 433.857 559.782 436.489 560.238 439.127L559.254 439.298C559.368 439.956 559.481 440.614 559.592 441.273L560.575 441.107C561.021 443.749 561.45 446.397 561.856 449.052H561.857L560.869 449.203C560.97 449.861 561.07 450.519 561.168 451.178L562.153 451.029C562.547 453.665 562.924 456.307 563.278 458.955H563.279L562.288 459.088C562.377 459.749 562.464 460.411 562.55 461.072L563.539 460.942C563.884 463.594 564.211 466.251 564.517 468.915H564.518L563.524 469.029C563.601 469.694 563.676 470.358 563.75 471.023L564.74 470.914C565.035 473.571 565.312 476.233 565.567 478.901H565.568L564.573 478.996C564.637 479.658 564.698 480.321 564.759 480.983L565.752 480.892C565.996 483.547 566.222 486.209 566.427 488.876L565.431 488.952C565.482 489.618 565.532 490.283 565.581 490.949L566.574 490.877C566.769 493.546 566.946 496.221 567.101 498.901L566.104 498.96C566.143 499.629 566.181 500.298 566.217 500.967L567.212 500.913C567.356 503.574 567.481 506.241 567.586 508.912L566.589 508.951C566.615 509.616 566.64 510.282 566.663 510.947L567.659 510.911C567.754 513.579 567.829 516.251 567.884 518.929L566.887 518.949C566.9 519.617 566.913 520.286 566.924 520.954L567.921 520.938C567.966 523.617 567.991 526.302 567.996 528.991L566.999 528.993C567 529.329 567 529.664 567 530V530.95H568V538.55H567V540.45H568V548.05H567V549.95H568V557.55H567V559.45H568V567H567.003V567.05H567V568H559.031V567H557.038V568H549.066V567H547.073V568H539.102V567H537.108V568H529.137V567H527.144V568H519.172V567H517.179V568H509.207V567H507.214V568H499.242V567H497.249V568H489.277V567H487.284V568H479.312V567H477.319V568H469.347V567H467.354V568H459.382V567H457.39V568H449.417V567H447.425V568H439.452V567H437.459V568H429.487V567H427.494V568H419.522V567H417.529V568H409.558V567H407.564V568H399.593V567H397.6V568H389.628V567H387.635V568H379.663V567H377.67V568H369.698V567H367.705V568H359.733V567H357.74V568H349.769V567H347.775V568H339.804V567H337.811V568H329.839V567H327.846V568H319.873V567H317.881V568H309.908V567H307.916V568H299.943V567H297.951V568H289.979V567H287.985V568H280.014V567H278.021V568H270.049V567H268.056V568H260.084V567H258.091V568H250.119V567H248.126V568H240.154V567H238.161V568H230.189V567H228.196V568H220.225V567H218.231V568H210.26V567H208.267V568H200.295V567H198.302V568H190.33V567H188.337V568H180.365V567H178.372V568H170.4V567H168.407V568H160.436V567H158.442V568H150.47V567H148.478V568H140.505V567H138.513V568H130.54V567H128.548V568H120.575V567H118.582V568H110.61V567H108.617V568H100.646V567H98.6523V568H90.6807V567H88.6875V568H80.7158V567H78.7227V568H70.751V567H68.7578V568H60.7861V567H58.793V568H50.8213V567H48.8281V568H40.8564V567H38.8633V568H30.8916V567H28.8984V568H20.9268V567H18.9336V568H10.9609V567H8.96875V568H1V567.003H0.996094V567H0V559.031H1V557.038H0V549.066H1V547.073H0V539.102H1V537.108H0V529.137H1V527.144H0V519.172H1V517.179H0V509.207H1V507.214H0V499.242H1V497.249H0V489.277H1V487.284H0V479.312H1V477.319H0V469.347H1V467.354H0V459.382H1V457.39H0V449.417H1V447.425H0V439.452H1V437.459H0V429.487H1V427.494H0V419.522H1V417.529H0V409.558H1V407.564H0V399.593H1V397.6H0V389.628H1V387.635H0V379.663H1V377.67H0V369.698H1V367.705H0V359.733H1V357.74H0V349.769H1V347.775H0V339.804H1V337.811H0V329.839H1V327.846H0V319.873H1V317.881H0V309.908H1V307.916H0V299.943H1V297.951H0V289.979H1V287.985H0V280.014H1V278.021H0V270.049H1V268.056H0V260.084H1V258.091H0V250.119H1V248.126H0V240.154H1V238.161H0V230.189H1V228.196H0V220.225H1V218.231H0V210.26H1V208.267H0V200.295H1V198.302H0V190.33H1V188.337H0V180.365H1V178.372H0V170.4H1V168.407H0V160.436H1V158.442H0V150.47H1V148.478H0V140.505H1V138.513H0V130.54H1V128.548H0V120.575H1V118.582H0V110.61H1V108.617H0V100.646H1V98.6523H0V90.6807H1V88.6875H0V80.7158H1V78.7227H0V70.751H1V68.7578H0V60.7861H1V58.793H0V50.8213H1V48.8281H0V40.8564H1V38.8633H0V30.8916H1V28.8984H0V20.9268H1V18.9336H0V10.9609H1V8.96875H0V1H0.950195V0.996094H1V0H8.5498V1H10.4502V0H18.0498V1H19.9502V0H27.5498V1H29.4502V0H37.0498V1H38C38.3352 1 38.6708 1.00035 39.0059 1.00098V0.00292969C41.6952 0.00792526 44.3798 0.0332103 47.0596 0.078125L47.0439 1.07617C47.7126 1.08738 48.3817 1.09959 49.0498 1.11328L49.0693 0.115234C51.7465 0.170084 54.4187 0.245434 57.0859 0.339844L57.0518 1.33691C57.7174 1.36048 58.3828 1.38511 59.0479 1.41113L59.0859 0.413086C61.7574 0.517608 64.4238 0.643182 67.085 0.787109L67.0312 1.7832C67.7007 1.81941 68.3702 1.85681 69.0391 1.89551L69.0957 0.897461C71.7763 1.05255 74.4513 1.23002 77.1211 1.4248L77.0488 2.41895C77.715 2.46755 78.3814 2.51729 79.0469 2.56836L79.1221 1.57227C81.7892 1.77693 84.4506 2.00307 87.1064 2.24707L87.0156 3.24023C87.6783 3.30111 88.341 3.36344 89.0029 3.42676L89.0967 2.43164C91.765 2.68689 94.4273 2.96412 97.084 3.25879L96.9746 4.25C97.6399 4.3238 98.3051 4.39932 98.9697 4.47559L99.083 3.48242C101.746 3.78805 104.403 4.115 107.055 4.45996L106.927 5.44922C107.588 5.53529 108.249 5.62341 108.91 5.71191L109.043 4.7207V4.71973C111.691 5.0745 114.333 5.45099 116.969 5.84473L116.821 6.83203C117.479 6.93036 118.138 7.03011 118.795 7.13086L118.945 6.14258C121.6 6.54947 124.249 6.97769 126.891 7.42383L126.726 8.4082C127.385 8.51948 128.043 8.63238 128.701 8.74609L128.871 7.76074C131.509 8.2166 134.141 8.69376 136.766 9.18848L136.581 10.1689C137.236 10.2924 137.891 10.4171 138.545 10.543L138.733 9.56152C141.359 10.0668 143.978 10.5929 146.59 11.1367L146.387 12.1133C147.042 12.2497 147.697 12.3875 148.352 12.5264L148.559 11.5498C151.182 12.1065 153.798 12.6829 156.407 13.2783L156.186 14.252C156.837 14.4005 157.488 14.5502 158.138 14.7012L158.362 13.7275C160.968 14.3326 163.566 14.9582 166.156 15.6016L165.916 16.5693C166.562 16.7298 167.208 16.8918 167.854 17.0547L168.098 16.0869C170.696 16.7426 173.286 17.4174 175.869 18.1113L175.61 19.0752C176.256 19.2487 176.902 19.4237 177.547 19.5996L177.809 18.6367C180.393 19.3416 182.969 20.0648 185.537 20.8076L185.261 21.7676C185.901 21.9529 186.542 22.1395 187.182 22.3271L187.462 21.3691C190.026 22.1214 192.582 22.8918 195.13 23.6816L194.835 24.6357C195.473 24.8336 196.112 25.0322 196.749 25.2324L197.048 24.2812C199.606 25.085 202.156 25.9058 204.697 26.7471L204.384 27.6963C205.018 27.9062 205.651 28.1169 206.284 28.3291L206.602 27.3828C209.138 28.2334 211.667 29.1015 214.187 29.9893L213.855 30.9326C214.484 31.1541 215.113 31.3768 215.74 31.6006L216.075 30.6602C218.596 31.5592 221.108 32.4761 223.611 33.4121L223.262 34.3477C223.888 34.5818 224.514 34.8172 225.139 35.0537L225.491 34.1201C227.997 35.0679 230.493 36.0331 232.98 37.0176L232.613 37.9463C233.234 38.1919 233.853 38.4387 234.473 38.6865L234.844 37.7598C237.326 38.7533 239.799 39.7651 242.263 40.7949L241.878 41.7168C242.493 41.9738 243.107 42.232 243.721 42.4912L244.108 41.5693C246.577 42.6124 249.036 43.6756 251.485 44.7549L251.084 45.668C251.695 45.9372 252.306 46.208 252.916 46.4795L253.322 45.5664C255.767 46.6548 258.202 47.7626 260.627 48.8867L260.208 49.792C260.813 50.0725 261.418 50.355 262.021 50.6377L262.444 49.7324C264.867 50.8665 267.279 52.019 269.682 53.1885L269.245 54.0859C269.846 54.3785 270.447 54.672 271.047 54.9668L271.485 54.0713C273.889 55.2527 276.283 56.4504 278.666 57.667L278.212 58.5566C278.806 58.8602 279.401 59.165 279.994 59.4707L280.45 58.584C282.828 59.8091 285.195 61.0497 287.552 62.3096L287.081 63.1914C287.669 63.5058 288.257 63.8221 288.844 64.1387L289.316 63.2598C291.673 64.5314 294.02 65.8179 296.355 67.124V67.125L295.867 67.9971C296.45 68.3231 297.033 68.6503 297.614 68.9785L298.104 68.1094C300.435 69.4246 302.755 70.7562 305.063 72.1055L304.561 72.9688C305.136 73.3053 305.712 73.6427 306.286 73.9814L306.792 73.1211C309.096 74.4796 311.389 75.8549 313.671 77.2471L313.15 78.0996C313.721 78.4475 314.291 78.7965 314.859 79.1465L315.383 78.2949C317.663 79.698 319.931 81.1192 322.188 82.5557L321.653 83.3984C322.216 83.7568 322.779 84.1161 323.341 84.4766L323.88 83.6357C326.131 85.0805 328.37 86.5428 330.598 88.0205L330.047 88.8525C330.603 89.2212 331.158 89.5912 331.712 89.9619L332.267 89.1318C334.491 90.6196 336.704 92.1241 338.904 93.6445L338.338 94.4658C338.887 94.8453 339.436 95.2259 339.983 95.6074L340.553 94.7881C342.749 96.3175 344.933 97.8622 347.104 99.4238L346.522 100.235C347.064 100.625 347.605 101.016 348.146 101.407L348.73 100.6C350.896 102.169 353.05 103.752 355.19 105.354V105.354L354.592 106.155C355.127 106.555 355.661 106.956 356.194 107.358L356.795 106.562C358.932 108.173 361.056 109.8 363.167 111.442L362.555 112.23C363.082 112.64 363.608 113.052 364.133 113.464L364.748 112.678C366.853 114.328 368.946 115.995 371.025 117.677L370.398 118.453C370.917 118.873 371.435 119.293 371.952 119.715L372.584 118.939V118.938C374.658 120.629 376.717 122.336 378.765 124.057L378.124 124.821C378.635 125.251 379.145 125.681 379.654 126.112L380.3 125.35C382.342 127.079 384.37 128.824 386.385 130.583L385.729 131.335C386.231 131.774 386.733 132.214 387.234 132.655L387.894 131.905C389.902 133.672 391.897 135.453 393.878 137.249L393.208 137.989C393.703 138.438 394.197 138.887 394.689 139.337L395.361 138.6C397.337 140.404 399.299 142.223 401.247 144.057H401.248L400.562 144.785C401.048 145.243 401.534 145.701 402.019 146.16L402.704 145.436C404.645 147.277 406.572 149.132 408.485 151.002L407.787 151.717C408.264 152.183 408.741 152.651 409.217 153.119L409.917 152.408C411.822 154.285 413.714 156.177 415.591 158.082L414.881 158.783C415.349 159.259 415.817 159.735 416.283 160.212L416.997 159.513C418.867 161.426 420.721 163.354 422.562 165.295L421.84 165.981C422.299 166.466 422.757 166.951 423.215 167.437L423.942 166.751C425.776 168.699 427.594 170.661 429.398 172.637L428.662 173.311C429.112 173.803 429.562 174.297 430.011 174.791L430.75 174.12C432.546 176.101 434.327 178.097 436.094 180.105L435.345 180.765C435.786 181.266 436.226 181.768 436.665 182.271L437.416 181.614C439.175 183.629 440.92 185.657 442.649 187.699L441.887 188.345C442.318 188.854 442.749 189.365 443.179 189.876L443.941 189.233C445.662 191.281 447.369 193.341 449.06 195.415H449.061L448.285 196.047C448.707 196.564 449.127 197.083 449.547 197.602L450.322 196.974C452.004 199.053 453.671 201.145 455.321 203.25L454.536 203.866C454.948 204.392 455.359 204.918 455.769 205.445L456.557 204.831C458.199 206.943 459.826 209.067 461.438 211.204L460.641 211.806C461.043 212.339 461.445 212.873 461.845 213.408L462.645 212.809C464.246 214.949 465.83 217.103 467.399 219.269L466.592 219.854C466.983 220.395 467.374 220.936 467.764 221.478L468.575 220.894C470.137 223.065 471.681 225.25 473.21 227.445L472.392 228.017C472.773 228.564 473.155 229.113 473.534 229.662L474.354 229.095C475.875 231.295 477.379 233.508 478.867 235.732L478.038 236.288C478.409 236.842 478.779 237.397 479.147 237.953L479.979 237.401C481.456 239.629 482.918 241.868 484.363 244.119L483.522 244.659C483.883 245.221 484.243 245.783 484.602 246.347L485.442 245.811C486.879 248.068 488.301 250.335 489.704 252.615L488.853 253.14C489.203 253.709 489.552 254.278 489.9 254.849L490.752 254.328C492.144 256.609 493.519 258.902 494.877 261.205L494.018 261.713C494.356 262.288 494.695 262.863 495.031 263.439L495.893 262.935C497.242 265.243 498.573 267.564 499.889 269.895L499.021 270.386C499.349 270.967 499.676 271.549 500.002 272.132L500.874 271.644C502.18 273.979 503.468 276.325 504.739 278.682L503.861 279.156C504.178 279.743 504.493 280.33 504.808 280.918L505.688 280.446C506.949 282.803 508.19 285.171 509.415 287.549L508.528 288.006C508.834 288.599 509.139 289.193 509.442 289.787L510.331 289.333C511.547 291.716 512.746 294.108 513.928 296.512L513.032 296.953C513.327 297.553 513.621 298.153 513.914 298.754L514.811 298.316C515.98 300.719 517.132 303.131 518.267 305.554L517.362 305.978C517.645 306.581 517.927 307.186 518.207 307.791L519.111 307.371C520.236 309.797 521.344 312.231 522.433 314.677H522.434L521.52 315.083C521.791 315.693 522.062 316.304 522.331 316.915L523.244 316.512C524.323 318.961 525.386 321.421 526.429 323.89L525.509 324.278C525.768 324.892 526.026 325.506 526.283 326.121L527.203 325.735C528.233 328.199 529.246 330.672 530.239 333.154L529.312 333.526C529.56 334.146 529.807 334.766 530.053 335.387L530.981 335.019C531.966 337.505 532.931 340.002 533.879 342.507L532.946 342.86C533.183 343.485 533.418 344.111 533.652 344.737L534.587 344.388C535.523 346.891 536.44 349.403 537.339 351.924L536.399 352.259C536.623 352.886 536.846 353.515 537.067 354.144L538.01 353.812C538.898 356.331 539.765 358.86 540.615 361.396L539.671 361.715C539.883 362.348 540.094 362.981 540.304 363.615L541.252 363.301Z" stroke="black" stroke-width="2" stroke-dasharray="2 8"/>
</svg>
