<svg width="19" height="19" viewBox="0 0 19 19" fill="none" xmlns="http://www.w3.org/2000/svg">
<path d="M18.9466 5.58287C18.901 4.57126 18.7376 3.8791 18.5057 3.27442C18.2625 2.65072 17.9394 2.11829 17.4111 1.59347C16.8828 1.06865 16.3545 0.73779 15.7312 0.498199C15.1269 0.26241 14.4351 0.102682 13.4241 0.0570456C12.4093 0.0114091 12.0862 0 9.50933 0C6.92861 0 6.60555 0.0114091 5.59455 0.0570456C4.58354 0.102682 3.89181 0.266213 3.28749 0.498199C2.66036 0.741593 2.12825 1.06485 1.60375 1.59347C1.07924 2.1221 0.748578 2.65072 0.50913 3.27442C0.277284 3.8791 0.113851 4.57126 0.0682419 5.58287C0.0226327 6.59828 0.0112305 6.92154 0.0112305 9.5C0.0112305 12.0823 0.0226327 12.4055 0.0682419 13.4171C0.113851 14.4287 0.277284 15.1209 0.50913 15.7256C0.752379 16.3493 1.07544 16.8817 1.60375 17.4065C2.12825 17.9351 2.66036 18.2622 3.28368 18.5018C3.88801 18.7376 4.57974 18.8973 5.59075 18.943C6.60555 18.9886 6.92861 19 9.50553 19C12.0862 19 12.4093 18.9886 13.4203 18.943C14.4313 18.8973 15.1231 18.7338 15.7274 18.5018C16.3507 18.2584 16.8828 17.9351 17.4073 17.4065C17.9318 16.8779 18.2625 16.3493 18.5019 15.7256C18.7376 15.1209 18.8972 14.4287 18.9428 13.4171C18.9884 12.4017 18.9998 12.0785 18.9998 9.5C18.9998 6.92154 18.9922 6.59448 18.9466 5.58287ZM17.2401 13.3411C17.1983 14.269 17.0424 14.7748 16.9132 15.1057C16.7422 15.5468 16.5331 15.8663 16.1987 16.201C15.8642 16.5356 15.5487 16.7372 15.104 16.9159C14.7696 17.0452 14.2641 17.2012 13.3405 17.243C12.3409 17.2886 12.0406 17.3 9.50173 17.3C6.96282 17.3 6.66256 17.2886 5.66296 17.243C4.73558 17.2012 4.23007 17.0452 3.89941 16.9159C3.45852 16.7448 3.13926 16.5356 2.80479 16.201C2.47032 15.8663 2.26888 15.5506 2.09025 15.1057C1.96102 14.771 1.80519 14.2652 1.76338 13.3411C1.71777 12.3409 1.70637 12.0404 1.70637 9.5C1.70637 6.95957 1.71777 6.65913 1.76338 5.65893C1.80519 4.73099 1.96102 4.22518 2.09025 3.89432C2.26128 3.45316 2.47032 3.13371 2.80479 2.79904C3.13926 2.46437 3.45472 2.26281 3.89941 2.08407C4.23387 1.95476 4.73938 1.79884 5.66296 1.75701C6.66256 1.71137 6.96282 1.69996 9.50173 1.69996C12.0406 1.69996 12.3409 1.71137 13.3405 1.75701C14.2679 1.79884 14.7734 1.95476 15.104 2.08407C15.5449 2.2552 15.8642 2.46437 16.1987 2.79904C16.5331 3.13371 16.7346 3.44936 16.9132 3.89432C17.0424 4.22898 17.1983 4.73479 17.2401 5.65893C17.2857 6.65913 17.2971 6.95957 17.2971 9.5C17.2971 12.0404 17.2819 12.3409 17.2401 13.3411Z" fill="#373737"/>
<path d="M9.50176 4.61694C6.80322 4.61694 4.62158 6.80369 4.62158 9.50005C4.62158 12.2002 6.80702 14.3832 9.50176 14.3832C12.1965 14.3832 14.3819 12.1926 14.3819 9.50005C14.3819 6.79989 12.2003 4.61694 9.50176 4.61694ZM9.50176 12.668C7.75341 12.668 6.33572 11.2494 6.33572 9.50005C6.33572 7.75065 7.75341 6.33212 9.50176 6.33212C11.2501 6.33212 12.6678 7.75065 12.6678 9.50005C12.6678 11.2494 11.2501 12.668 9.50176 12.668Z" fill="#373737"/>
<path d="M14.5719 5.56771C15.2016 5.56771 15.7121 5.05691 15.7121 4.4268C15.7121 3.79669 15.2016 3.28589 14.5719 3.28589C13.9421 3.28589 13.4316 3.79669 13.4316 4.4268C13.4316 5.05691 13.9421 5.56771 14.5719 5.56771Z" fill="#373737"/>
<path d="M0 9.5C0 12.0823 0.0114023 12.4055 0.0570114 13.4171C0.102621 14.4287 0.266053 15.1209 0.4979 15.7256C0.741148 16.3493 1.06421 16.8817 1.59252 17.4065C2.11702 17.9313 2.64913 18.2622 3.27245 18.5018C3.87678 18.7376 4.56851 18.8973 5.57952 18.943C6.59432 18.9886 6.91738 19 9.4943 19C12.075 19 12.3981 18.9886 13.4091 18.943C14.4201 18.8973 15.1118 18.7338 15.7161 18.5018C16.3395 18.2584 16.8716 17.9351 17.3961 17.4065C17.9206 16.8817 18.2513 16.3493 18.4907 15.7256C18.7263 15.1209 18.886 14.4287 18.9316 13.4171C18.9772 12.4017 18.9886 12.0785 18.9886 9.5C18.9886 6.91773 18.9772 6.59448 18.9316 5.58287C18.886 4.57126 18.7225 3.8791 18.4907 3.27442C18.2474 2.65072 17.9244 2.11829 17.3961 1.59347C16.8754 1.06485 16.3433 0.73779 15.7199 0.498199C15.1156 0.26241 14.4239 0.102682 13.4129 0.0570456C12.3981 0.0114091 12.075 0 9.4981 0C6.91738 0 6.59432 0.0114091 5.58332 0.0570456C4.57231 0.102682 3.88058 0.266213 3.27626 0.498199C2.65293 0.741593 2.12082 1.06485 1.59632 1.59347C1.07181 2.1221 0.741148 2.65072 0.5017 3.27442C0.266053 3.8791 0.102621 4.57126 0.0570114 5.58287C0.0114023 6.59448 0 6.91773 0 9.5ZM1.71414 9.5C1.71414 6.96337 1.72555 6.65913 1.77115 5.65893C1.81296 4.73099 1.96879 4.22518 2.09802 3.89432C2.26905 3.45316 2.4781 3.13371 2.81256 2.79904C3.14703 2.46437 3.46249 2.26281 3.90718 2.08407C4.24165 1.95476 4.74715 1.79884 5.67073 1.75701C6.67033 1.71137 6.97059 1.69996 9.5095 1.69996C12.0484 1.69996 12.3487 1.71137 13.3483 1.75701C14.2757 1.79884 14.7812 1.95476 15.1118 2.08407C15.5527 2.2552 15.872 2.46437 16.2064 2.79904C16.5409 3.13371 16.7423 3.44936 16.921 3.89432C17.0502 4.22898 17.206 4.73479 17.2478 5.65893C17.2935 6.65913 17.3049 6.95957 17.3049 9.5C17.3049 12.0404 17.2935 12.3409 17.2478 13.3411C17.206 14.269 17.0502 14.7748 16.921 15.1057C16.75 15.5468 16.5409 15.8663 16.2064 16.201C15.872 16.5356 15.5565 16.7372 15.1118 16.9159C14.7774 17.0452 14.2719 17.2012 13.3483 17.243C12.3487 17.2886 12.0484 17.3 9.5095 17.3C6.97059 17.3 6.67033 17.2886 5.67073 17.243C4.74335 17.2012 4.23785 17.0452 3.90718 16.9159C3.46629 16.7448 3.14703 16.5356 2.81256 16.201C2.4781 15.8663 2.27666 15.5506 2.09802 15.1057C1.96879 14.771 1.81296 14.2652 1.77115 13.3411C1.72174 12.3409 1.71414 12.0366 1.71414 9.5Z" fill="#373737"/>
</svg>
