<svg width="20" height="19" viewBox="0 0 20 19" fill="none" xmlns="http://www.w3.org/2000/svg">
<path d="M0.5 2.10907C0.5 1.49774 0.71397 0.993392 1.14189 0.596042C1.56981 0.198675 2.12613 0 2.81081 0C3.48328 0 4.02734 0.195612 4.44305 0.586873C4.87097 0.990347 5.08494 1.51608 5.08494 2.16409C5.08494 2.75096 4.8771 3.24001 4.46139 3.63127C4.03347 4.03475 3.47104 4.23649 2.77413 4.23649H2.75579C2.08333 4.23649 1.53926 4.03475 1.12355 3.63127C0.707845 3.2278 0.5 2.72039 0.5 2.10907ZM0.738417 18.1564V5.90541H4.80985V18.1564H0.738417ZM7.06564 18.1564H11.1371V11.3156C11.1371 10.8877 11.186 10.5576 11.2838 10.3253C11.4549 9.90958 11.7148 9.55806 12.0632 9.27075C12.4117 8.98342 12.8488 8.83977 13.3745 8.83977C14.7439 8.83977 15.4286 9.76286 15.4286 11.6091V18.1564H19.5V11.1322C19.5 9.32271 19.0721 7.95029 18.2162 7.01496C17.3604 6.07963 16.2294 5.61197 14.8234 5.61197C13.2461 5.61197 12.0174 6.29054 11.1371 7.64768V7.68436H11.1187L11.1371 7.64768V5.90541H7.06564C7.09008 6.29665 7.10232 7.51318 7.10232 9.55502C7.10232 11.5968 7.09008 14.464 7.06564 18.1564Z" fill="#373737"/>
</svg>
