<svg width="85" height="40" viewBox="0 0 85 40" fill="none" xmlns="http://www.w3.org/2000/svg">
<path d="M19.6176 5.50567C18.7949 3.29606 18.3753 2.17483 17.9385 2.18643C17.3145 2.20189 17.2137 3.75326 15.8677 5.70091C15.1534 6.73516 13.7115 8.85777 12.1898 8.72824C10.6777 8.59969 9.66779 6.3002 8.82007 4.37283C7.60658 1.61325 7.70067 0.0657528 7.11888 0.00195855C6.25101 -0.0937329 5.81707 3.32699 3.29217 8.08353C1.17624 12.0697 0.182604 12.1142 0.020358 14C-0.301255 17.7339 3.23745 21.6727 7.11408 23.2801C11.5226 25.1089 15.5931 23.6 16.6425 23.168C20.5527 21.5586 24.5417 17.5956 23.9407 14.3856C23.7343 13.2818 23.1093 12.9329 22.2846 11.7208C21.9083 11.1679 21.5118 10.3666 21.0634 9.39712C20.4212 8.00814 20.3741 7.53838 19.6167 5.50373L19.6176 5.50567ZM9.04664 14.085C9.0044 15.676 7.97044 17.4671 7.01616 17.4178C6.0638 17.3685 5.34473 15.4953 5.29865 14.0589C5.24777 12.4747 5.98508 10.4923 6.93648 10.4265C7.91187 10.3589 9.09464 12.3046 9.04664 14.086V14.085ZM12.8369 20.913C12.2436 21.6543 12.0074 21.7432 11.8144 21.7432C11.6733 21.7432 11.3997 21.6959 10.791 20.913C10.0566 19.9686 9.51226 19.2659 9.76859 18.7729C10.0288 18.2752 10.9523 18.2858 11.7789 18.2955C12.5786 18.3042 13.6932 18.3177 13.9371 18.8831C14.1195 19.3046 13.6913 19.84 12.8359 20.912L12.8369 20.913ZM18.5357 14.4291C18.4137 15.7814 17.5718 17.4304 16.6473 17.4178C15.7016 17.4052 14.9317 15.6586 14.8203 14.3102C14.6744 12.5559 15.5557 10.4662 16.5244 10.4265C17.5267 10.384 18.7065 12.5288 18.5347 14.4301L18.5357 14.4291Z" fill="#141614"/>
<path d="M50.8111 6.54669H44.7821C43.4601 6.02474 42.046 5.76086 40.5809 5.76086C34.9647 5.76086 30.3949 9.74027 30.3949 14.6341C30.3949 16.9287 31.3905 19.0939 33.2011 20.7506C32.8229 21.1875 32.2987 22.4643 32.2334 23.5691C32.2056 24.0321 32.244 24.9407 32.8008 25.8193C33.0187 26.1654 33.6466 27.0082 34.7506 27.3591C35.2153 27.507 35.6444 27.5225 35.8355 27.5234C36.2531 27.5254 36.5901 27.4471 36.9098 27.3755C37.2755 27.2943 37.5386 27.2054 37.6019 27.1851C38.3143 26.9522 39.6708 26.8014 40.5848 26.7927C41.2155 26.7869 44.0668 26.756 46.5869 28.5538C47.7207 29.3628 48.1585 30.0945 48.3064 30.3613C48.4446 30.6116 48.9045 31.4487 48.9045 32.4578C48.9045 33.9096 48.0817 35.2957 46.5869 36.3628C44.9962 37.4985 42.8639 38.1239 40.5848 38.1239C38.3056 38.1239 36.1734 37.4995 34.5817 36.3628C34.2255 36.1086 33.9039 35.8157 33.9039 35.8157C33.5218 35.459 32.8421 34.8105 32.4878 33.7521C32.3092 33.2185 32.2824 32.7903 32.2766 32.6676C32.2449 32.0054 32.3947 31.5048 32.5003 31.1626C32.6971 30.5295 32.9659 30.0916 33.1272 29.8287C33.277 29.5851 33.4431 29.3503 33.6207 29.1308C33.7464 28.9723 33.7445 28.7471 33.6149 28.5925L33.2165 28.115C33.1358 28.0193 33.0187 27.9651 32.8958 27.9651C32.8123 27.9651 32.7307 27.9903 32.6606 28.0376C32.4686 28.1691 32.2756 28.3247 32.0865 28.4987C31.1207 29.3831 30.7213 30.3352 30.5553 30.9789C30.4237 31.4903 30.4064 31.933 30.3959 32.1968C30.3872 32.4133 30.3767 32.9537 30.4765 33.5307C30.7079 34.8762 31.4337 35.8292 31.7908 36.2864C31.9886 36.5406 32.5483 37.2115 33.5035 37.8929C35.4083 39.2519 37.9226 40 40.5848 40C43.247 40 45.7623 39.2519 47.6651 37.8929C49.6667 36.4653 50.7679 34.534 50.7679 32.4578C50.7679 30.3816 49.6667 28.4513 47.6651 27.0237C45.7613 25.6647 43.246 24.9156 40.5848 24.9156C39.3482 24.9156 38.0868 25.0422 36.9078 25.4172C36.7648 25.4627 36.1312 25.6753 35.4851 25.4569C35.3679 25.4172 35.2729 25.3699 35.2105 25.3389C35.0598 25.2626 34.5471 24.9726 34.3244 24.4168C34.0776 23.7944 34.2581 22.5407 34.7842 21.9327C36.4912 22.9641 38.4919 23.5092 40.5809 23.5092C46.1991 23.5092 50.7689 19.5279 50.7689 14.636C50.7689 12.3288 49.7762 10.1743 47.9627 8.51755H50.8111C51.0425 8.51755 51.2306 8.3281 51.2306 8.09516V6.97006C51.2306 6.73711 51.0425 6.54766 50.8111 6.54766V6.54669ZM40.5819 21.5876C36.0169 21.5876 32.3025 18.4675 32.3025 14.6341C32.3025 10.8006 36.0169 7.68049 40.5819 7.68049C45.1469 7.68049 48.8622 10.7996 48.8622 14.6341C48.8622 18.4685 45.1478 21.5876 40.5819 21.5876Z" fill="#141614"/>
<path d="M71.7899 6.68299C69.3236 6.07018 67.0992 5.76087 65.1781 5.76087C64.4418 5.7512 63.4673 5.786 62.3364 5.96095C61.9735 6.01701 60.8762 6.20066 59.8394 6.53993C57.855 7.18851 56.1989 8.24015 54.9201 9.66489C54.2107 10.4536 52.0563 12.8536 52.1725 16.3633C52.3136 20.6211 55.6843 23.1023 56.3218 23.5498C58.7929 25.2848 61.386 25.3245 62.3758 25.3264C63.0795 25.3274 64.6136 25.2626 66.4108 24.5773C67.8221 24.0399 69.1383 23.2086 70.2423 22.1608L70.2183 24.1588C70.2183 24.1897 70.2203 24.2342 70.2347 24.2834C70.274 24.4159 70.3815 24.5241 70.5112 24.5657C70.5601 24.5812 70.6043 24.585 70.6369 24.585H71.7525C71.9838 24.585 72.1701 24.3956 72.1701 24.1626V7.17014C72.1701 6.93816 72.0146 6.73808 71.7899 6.68299ZM70.2222 8.22372C70.2203 12.0117 70.2174 15.7998 70.2155 19.5878C69.5386 20.3949 68.088 21.8941 65.7628 22.7186C65.0994 22.9544 60.9568 24.4226 57.445 21.9376C56.7788 21.4659 54.2318 19.5095 54.1262 16.2956C54.0359 13.5747 55.7314 11.6937 56.3698 10.9852C59.1836 7.86512 63.3032 7.6892 65.1311 7.6109C67.3017 7.51811 69.0778 7.89508 70.2231 8.22372H70.2222Z" fill="#141614"/>
<path d="M84.9973 23.7006C84.982 23.8156 84.9196 23.92 84.8265 23.9877C83.1521 25.1979 81.0458 25.3351 81.0458 25.3351C80.4477 25.3264 78.5305 25.2143 76.8284 23.7837C75.2558 22.4624 74.7153 20.8009 74.386 19.3781C74.0059 17.7407 74.0059 15.8143 74.0059 14.6641V3.31351C74.0059 3.08056 74.194 2.89111 74.4254 2.89111H75.5429C75.7733 2.89111 75.9605 3.08056 75.9605 3.31351V6.54672H81.8503C82.0817 6.54672 82.2699 6.73617 82.2699 6.96912V8.09421C82.2699 8.32716 82.0817 8.51661 81.8503 8.51661H75.9605V14.665C75.9605 15.7312 75.9605 17.5135 76.2898 18.9305C76.5231 19.9387 77.03 21.3422 78.1177 22.3058C78.9251 23.0201 80.0599 23.429 81.2292 23.429C82.1883 23.429 83.0974 23.1477 83.7906 22.6383C83.8626 22.5852 83.9471 22.5562 84.0363 22.5562C84.1631 22.5562 84.2811 22.6132 84.3608 22.7108L84.9042 23.3778C84.9781 23.4686 85.0117 23.5866 84.9964 23.7026L84.9973 23.7006Z" fill="#141614"/>
</svg>
