<svg width="18" height="17" viewBox="0 0 18 17" fill="none" xmlns="http://www.w3.org/2000/svg">
<path fill-rule="evenodd" clip-rule="evenodd" d="M14.0778 4.83119C14.7365 5.39756 14.5775 6.66259 13.7227 7.65672C12.8679 8.65085 11.641 8.99763 10.9823 8.43126C10.3236 7.8649 10.4826 6.59987 11.3374 5.60574C12.1922 4.61161 13.4191 4.26483 14.0778 4.83119ZM7.5647 6.45843C8.38453 6.74569 9.4006 5.97551 9.83415 4.73817C10.2677 3.50084 9.95456 2.26492 9.13473 1.97765C8.3149 1.69039 7.29884 2.46058 6.86529 3.69791C6.43174 4.93525 6.74488 6.17117 7.5647 6.45843ZM10.2507 12.8153C9.82028 12.0286 9.62086 11.1332 9.67976 10.2389C9.72253 9.39582 9.41477 8.65308 8.78665 8.29043C8.15853 7.92779 7.36393 8.03408 6.65268 8.4912C5.90764 8.98936 5.03245 9.26438 4.13599 9.28496C3.50698 9.28505 3.02531 9.46102 2.81413 9.82679C2.28983 10.7349 3.56729 12.4546 5.67111 13.6692C7.77493 14.8839 9.90293 15.1303 10.4272 14.2222C10.6518 13.8507 10.5793 13.3413 10.2507 12.8153ZM13.7594 12.2898C14.6022 11.6955 14.9659 10.7608 14.5719 10.2021C14.1779 9.64334 13.1753 9.67213 12.3326 10.2664C11.4899 10.8606 11.1261 11.7953 11.5201 12.3541C11.9141 12.9128 12.9167 12.884 13.7594 12.2898ZM5.29746 6.20714C5.20418 7.23409 4.57659 8.01646 3.8957 7.95461C3.2148 7.89277 2.73845 7.01012 2.83173 5.98317C2.92501 4.95623 3.5526 4.17386 4.23349 4.2357C4.91439 4.29755 5.39074 5.18019 5.29746 6.20714Z" fill="white"/>
</svg>
