<svg width="20" height="19" viewBox="0 0 20 19" fill="none" xmlns="http://www.w3.org/2000/svg">
<g clip-path="url(#clip0_8663_135)">
<path d="M19.3587 4.93164C19.1395 4.1178 18.4979 3.47612 17.684 3.25702C16.1972 2.8501 10.25 2.8501 10.25 2.8501C10.25 2.8501 4.3027 2.8501 2.81589 3.24136C2.0177 3.46047 1.36038 4.1178 1.14127 4.93164C0.75 6.41845 0.75 9.50163 0.75 9.50163C0.75 9.50163 0.75 12.6005 1.14127 14.0716C1.36038 14.8855 2.00205 15.5271 2.81589 15.7463C4.31835 16.1532 10.25 16.1532 10.25 16.1532C10.25 16.1532 16.1972 16.1532 17.684 15.7619C18.4979 15.5428 19.1395 14.9011 19.3587 14.0873C19.7499 12.6005 19.7499 9.51728 19.7499 9.51728C19.7499 9.51728 19.7656 6.41845 19.3587 4.93164Z" fill="#373737"/>
<path d="M8.35645 12.3502L13.3021 9.50174L8.35645 6.65332V12.3502Z" fill="#EFEFEF"/>
</g>
<defs>
<clipPath id="clip0_8663_135">
<rect x="0.75" width="19" height="19" rx="6" fill="white"/>
</clipPath>
</defs>
</svg>
